<mxfile host="app.diagrams.net" modified="2024-01-28T14:08:01.684Z" agent="Mozilla/5.0 (Windows NT 10.0; Win64; x64; rv:122.0) Gecko/20100101 Firefox/122.0" version="23.0.2" etag="Ma1GkmvJf_6YBslcmpJb" type="github">
  <diagram name="PÃ¡gina-1" id="POAl2ZAWxUbq09ILEVXE">
    <mxGraphModel>
      <root>
        <mxCell id="0" />
        <mxCell id="1" parent="0" />
      </root>
    </mxGraphModel>
  </diagram>
</mxfile>
